<svg width="56" height="56" viewBox="0 0 56 56" fill="none" xmlns="http://www.w3.org/2000/svg">
<path d="M48.4321 25.8671C50.072 24.7148 51.1579 22.7979 51.1579 20.6372C51.1579 17.1026 48.2992 14.2438 44.7645 14.2438C41.2299 14.2438 38.3712 17.1026 38.3712 20.6372C38.3712 22.7979 39.446 24.7148 41.097 25.8671C39.6898 26.3546 38.4044 27.1081 37.3186 28.0832C35.8227 26.8089 34.0609 25.8339 32.133 25.2577C34.4709 23.8394 36.0443 21.2577 36.0443 18.3214C36.0443 13.8449 32.4211 10.2217 27.9446 10.2217C23.4681 10.2217 19.8449 13.856 19.8449 18.3214C19.8449 21.2577 21.4072 23.8394 23.7562 25.2577C21.8504 25.8339 20.1108 26.7979 18.626 28.0499C17.5402 27.097 16.277 26.3546 14.892 25.8782C16.5319 24.7258 17.6177 22.8089 17.6177 20.6483C17.6177 17.1136 14.759 14.2549 11.2244 14.2549C7.68975 14.2549 4.83103 17.1136 4.83103 20.6483C4.83103 22.8089 5.90582 24.7258 7.55679 25.8782C3.15789 27.3962 0 31.5735 0 36.4821V37.2134C0 37.2355 0.0221607 37.2577 0.0443213 37.2577H13.5956C13.518 37.8671 13.4737 38.4987 13.4737 39.1303V39.8837C13.4737 43.1413 16.1108 45.7785 19.3684 45.7785H36.5429C39.8006 45.7785 42.4377 43.1413 42.4377 39.8837V39.1303C42.4377 38.4987 42.3934 37.8671 42.3158 37.2577H55.9557C55.9778 37.2577 56 37.2355 56 37.2134V36.4821C55.9778 31.5624 52.831 27.3851 48.4321 25.8671ZM40.144 20.6261C40.144 18.0776 42.2161 16.0056 44.7645 16.0056C47.313 16.0056 49.385 18.0776 49.385 20.6261C49.385 23.1413 47.3573 25.1912 44.8532 25.2466C44.8199 25.2466 44.7978 25.2466 44.7645 25.2466C44.7313 25.2466 44.7091 25.2466 44.6759 25.2466C42.1607 25.2023 40.144 23.1524 40.144 20.6261ZM21.5956 18.3214C21.5956 14.8311 24.4321 11.9945 27.9224 11.9945C31.4127 11.9945 34.2493 14.8311 34.2493 18.3214C34.2493 21.6898 31.6011 24.4488 28.2881 24.6372C28.1662 24.6372 28.0443 24.6372 27.9224 24.6372C27.8006 24.6372 27.6787 24.6372 27.5568 24.6372C24.2438 24.4488 21.5956 21.6898 21.5956 18.3214ZM6.57064 20.6261C6.57064 18.0776 8.64266 16.0056 11.1911 16.0056C13.7396 16.0056 15.8116 18.0776 15.8116 20.6261C15.8116 23.1413 13.7839 25.1912 11.2798 25.2466C11.2465 25.2466 11.2244 25.2466 11.1911 25.2466C11.1579 25.2466 11.1357 25.2466 11.1025 25.2466C8.59834 25.2023 6.57064 23.1524 6.57064 20.6261ZM13.9058 35.4738H1.79501C2.29363 30.7535 6.28255 27.0527 11.1247 27.0195C11.1468 27.0195 11.169 27.0195 11.1911 27.0195C11.2133 27.0195 11.2355 27.0195 11.2576 27.0195C13.5623 27.0305 15.6676 27.8837 17.2964 29.2688C15.7008 30.9973 14.5152 33.1247 13.9058 35.4738ZM40.6427 39.8837C40.6427 42.1552 38.7922 44.0056 36.5208 44.0056H19.3463C17.0748 44.0056 15.2244 42.1552 15.2244 39.8837V39.1303C15.2244 32.2494 20.7202 26.6206 27.5568 26.4211C27.6787 26.4322 27.8116 26.4322 27.9335 26.4322C28.0554 26.4322 28.1884 26.4322 28.3103 26.4211C35.1468 26.6206 40.6427 32.2494 40.6427 39.1303V39.8837ZM41.9612 35.4738C41.3518 33.1358 40.1884 31.0416 38.6039 29.3131C40.2438 27.8948 42.3712 27.0416 44.6981 27.0195C44.7202 27.0195 44.7424 27.0195 44.7645 27.0195C44.7867 27.0195 44.8089 27.0195 44.831 27.0195C49.6731 27.0527 53.6621 30.7535 54.1607 35.4738H41.9612Z" fill="#5AAE37"/>
</svg>
