<svg width="56" height="56" viewBox="0 0 56 56" fill="none" xmlns="http://www.w3.org/2000/svg">
<g clip-path="url(#clip0_114_62)">
<path d="M54.25 50.75H53.375V21.875C53.375 21.6429 53.2828 21.4204 53.1187 21.2563C52.9546 21.0922 52.7321 21 52.5 21H42.875V1.75C42.875 1.51794 42.7828 1.29538 42.6187 1.13128C42.4546 0.967187 42.2321 0.875 42 0.875H14C13.7679 0.875 13.5454 0.967187 13.3813 1.13128C13.2172 1.29538 13.125 1.51794 13.125 1.75V12.25H3.5C3.26794 12.25 3.04538 12.3422 2.88128 12.5063C2.71719 12.6704 2.625 12.8929 2.625 13.125V50.75H1.75C1.51794 50.75 1.29538 50.8422 1.13128 51.0063C0.967187 51.1704 0.875 51.3929 0.875 51.625V54.25C0.875 54.4821 0.967187 54.7046 1.13128 54.8687C1.29538 55.0328 1.51794 55.125 1.75 55.125H54.25C54.4821 55.125 54.7046 55.0328 54.8687 54.8687C55.0328 54.7046 55.125 54.4821 55.125 54.25V51.625C55.125 51.3929 55.0328 51.1704 54.8687 51.0063C54.7046 50.8422 54.4821 50.75 54.25 50.75ZM42.875 22.75H51.625V50.75H42.875V22.75ZM14.875 2.625H41.125V50.75H35V37.625C35 37.3929 34.9078 37.1704 34.7437 37.0063C34.5796 36.8422 34.3571 36.75 34.125 36.75H21.875C21.6429 36.75 21.4204 36.8422 21.2563 37.0063C21.0922 37.1704 21 37.3929 21 37.625V50.75H14.875V2.625ZM33.25 38.5V50.75H28.875V38.5H33.25ZM27.125 38.5V50.75H22.75V38.5H27.125ZM4.375 14H13.125V50.75H4.375V14ZM53.375 53.375H2.625V52.5H53.375V53.375Z" fill="#5AAE37"/>
<path d="M11.375 14.875H6.125C5.89294 14.875 5.67038 14.9672 5.50628 15.1313C5.34219 15.2954 5.25 15.5179 5.25 15.75V21C5.25 21.2321 5.34219 21.4546 5.50628 21.6187C5.67038 21.7828 5.89294 21.875 6.125 21.875H11.375C11.6071 21.875 11.8296 21.7828 11.9937 21.6187C12.1578 21.4546 12.25 21.2321 12.25 21V15.75C12.25 15.5179 12.1578 15.2954 11.9937 15.1313C11.8296 14.9672 11.6071 14.875 11.375 14.875ZM10.5 20.125H7V16.625H10.5V20.125Z" fill="#5AAE37"/>
<path d="M11.375 23.625H6.125C5.89294 23.625 5.67038 23.7172 5.50628 23.8813C5.34219 24.0454 5.25 24.2679 5.25 24.5V29.75C5.25 29.9821 5.34219 30.2046 5.50628 30.3687C5.67038 30.5328 5.89294 30.625 6.125 30.625H11.375C11.6071 30.625 11.8296 30.5328 11.9937 30.3687C12.1578 30.2046 12.25 29.9821 12.25 29.75V24.5C12.25 24.2679 12.1578 24.0454 11.9937 23.8813C11.8296 23.7172 11.6071 23.625 11.375 23.625ZM10.5 28.875H7V25.375H10.5V28.875Z" fill="#5AAE37"/>
<path d="M11.375 32.375H6.125C5.89294 32.375 5.67038 32.4672 5.50628 32.6313C5.34219 32.7954 5.25 33.0179 5.25 33.25V38.5C5.25 38.7321 5.34219 38.9546 5.50628 39.1187C5.67038 39.2828 5.89294 39.375 6.125 39.375H11.375C11.6071 39.375 11.8296 39.2828 11.9937 39.1187C12.1578 38.9546 12.25 38.7321 12.25 38.5V33.25C12.25 33.0179 12.1578 32.7954 11.9937 32.6313C11.8296 32.4672 11.6071 32.375 11.375 32.375ZM10.5 37.625H7V34.125H10.5V37.625Z" fill="#5AAE37"/>
<path d="M44.625 30.625H49.875C50.1071 30.625 50.3296 30.5328 50.4937 30.3687C50.6578 30.2046 50.75 29.9821 50.75 29.75V24.5C50.75 24.2679 50.6578 24.0454 50.4937 23.8813C50.3296 23.7172 50.1071 23.625 49.875 23.625H44.625C44.3929 23.625 44.1704 23.7172 44.0063 23.8813C43.8422 24.0454 43.75 24.2679 43.75 24.5V29.75C43.75 29.9821 43.8422 30.2046 44.0063 30.3687C44.1704 30.5328 44.3929 30.625 44.625 30.625ZM45.5 25.375H49V28.875H45.5V25.375Z" fill="#5AAE37"/>
<path d="M44.625 39.375H49.875C50.1071 39.375 50.3296 39.2828 50.4937 39.1187C50.6578 38.9546 50.75 38.7321 50.75 38.5V33.25C50.75 33.0179 50.6578 32.7954 50.4937 32.6313C50.3296 32.4672 50.1071 32.375 49.875 32.375H44.625C44.3929 32.375 44.1704 32.4672 44.0063 32.6313C43.8422 32.7954 43.75 33.0179 43.75 33.25V38.5C43.75 38.7321 43.8422 38.9546 44.0063 39.1187C44.1704 39.2828 44.3929 39.375 44.625 39.375ZM45.5 34.125H49V37.625H45.5V34.125Z" fill="#5AAE37"/>
<path d="M17.5 34.125H38.5C38.7321 34.125 38.9546 34.0328 39.1187 33.8687C39.2828 33.7046 39.375 33.4821 39.375 33.25V26.25C39.375 26.0179 39.2828 25.7954 39.1187 25.6313C38.9546 25.4672 38.7321 25.375 38.5 25.375H17.5C17.2679 25.375 17.0454 25.4672 16.8813 25.6313C16.7172 25.7954 16.625 26.0179 16.625 26.25V33.25C16.625 33.4821 16.7172 33.7046 16.8813 33.8687C17.0454 34.0328 17.2679 34.125 17.5 34.125ZM27.125 32.375H23.625V27.125H27.125V32.375ZM28.875 27.125H32.375V32.375H28.875V27.125ZM37.625 32.375H34.125V27.125H37.625V32.375ZM18.375 27.125H21.875V32.375H18.375V27.125Z" fill="#5AAE37"/>
<path d="M17.5 23.625H38.5C38.7321 23.625 38.9546 23.5328 39.1187 23.3687C39.2828 23.2046 39.375 22.9821 39.375 22.75V15.75C39.375 15.5179 39.2828 15.2954 39.1187 15.1313C38.9546 14.9672 38.7321 14.875 38.5 14.875H17.5C17.2679 14.875 17.0454 14.9672 16.8813 15.1313C16.7172 15.2954 16.625 15.5179 16.625 15.75V22.75C16.625 22.9821 16.7172 23.2046 16.8813 23.3687C17.0454 23.5328 17.2679 23.625 17.5 23.625ZM27.125 21.875H23.625V16.625H27.125V21.875ZM28.875 16.625H32.375V21.875H28.875V16.625ZM37.625 21.875H34.125V16.625H37.625V21.875ZM18.375 16.625H21.875V21.875H18.375V16.625Z" fill="#5AAE37"/>
<path d="M17.5 13.125H38.5C38.7321 13.125 38.9546 13.0328 39.1187 12.8687C39.2828 12.7046 39.375 12.4821 39.375 12.25V5.25C39.375 5.01794 39.2828 4.79538 39.1187 4.63128C38.9546 4.46719 38.7321 4.375 38.5 4.375H17.5C17.2679 4.375 17.0454 4.46719 16.8813 4.63128C16.7172 4.79538 16.625 5.01794 16.625 5.25V12.25C16.625 12.4821 16.7172 12.7046 16.8813 12.8687C17.0454 13.0328 17.2679 13.125 17.5 13.125ZM27.125 11.375H23.625V6.125H27.125V11.375ZM28.875 6.125H32.375V11.375H28.875V6.125ZM37.625 11.375H34.125V6.125H37.625V11.375ZM18.375 6.125H21.875V11.375H18.375V6.125Z" fill="#5AAE37"/>
</g>
<defs>
<clipPath id="clip0_114_62">
<rect width="56" height="56" fill="white"/>
</clipPath>
</defs>
</svg>
