<svg width="56" height="56" viewBox="0 0 56 56" fill="none" xmlns="http://www.w3.org/2000/svg">
<g clip-path="url(#clip0_100_61)">
<path d="M50.1667 51.3334H5.83333C2.56667 51.3334 0 48.7668 0 45.5001V17.5001C0 14.2334 2.56667 11.6667 5.83333 11.6667H50.1667C53.4333 11.6667 56 14.2334 56 17.5001V45.5001C56 48.7668 53.4333 51.3334 50.1667 51.3334ZM5.83333 14.0001C3.96667 14.0001 2.33333 15.6334 2.33333 17.5001V45.5001C2.33333 47.3667 3.96667 49.0001 5.83333 49.0001H50.1667C52.0333 49.0001 53.6667 47.3667 53.6667 45.5001V17.5001C53.6667 15.6334 52.0333 14.0001 50.1667 14.0001H5.83333Z" fill="#5AAE37"/>
<path d="M36.1641 13.9998C35.4641 13.9998 34.9974 13.5332 34.9974 12.8332V8.1665C34.9974 7.4665 34.5307 6.99984 33.8307 6.99984H22.1641C21.4641 6.99984 20.9974 7.4665 20.9974 8.1665V12.8332C20.9974 13.5332 20.5307 13.9998 19.8307 13.9998C19.1307 13.9998 18.6641 13.5332 18.6641 12.8332V8.1665C18.6641 6.29984 20.2974 4.6665 22.1641 4.6665H33.8307C35.6974 4.6665 37.3307 6.29984 37.3307 8.1665V12.8332C37.3307 13.5332 36.8641 13.9998 36.1641 13.9998Z" fill="#5AAE37"/>
<path d="M27.9996 32.6668C27.7662 32.6668 27.7662 32.6668 27.5329 32.6668L0.699564 23.3334C0.232897 23.1001 -0.23377 22.4001 -0.000436526 21.7001C0.232897 21.2334 0.932897 20.7668 1.6329 21.0001L27.9996 30.3334L54.3662 21.0001C55.0662 20.7668 55.5329 21.0001 55.7662 21.7001C55.9996 22.4001 55.7662 22.8668 55.0662 23.1001L28.2329 32.4334C28.2329 32.6668 28.2329 32.6668 27.9996 32.6668Z" fill="#5AAE37"/>
</g>
<defs>
<clipPath id="clip0_100_61">
<rect width="56" height="56" fill="white"/>
</clipPath>
</defs>
</svg>
